<svg width="107" height="33" viewBox="0 0 107 33" fill="none" xmlns="http://www.w3.org/2000/svg">
<path d="M9.73 17.528H7.843V27H0.998V1.285H9.915C13.541 1.285 16.242 1.93867 18.018 3.246C19.8187 4.55333 20.719 6.56367 20.719 9.277C20.719 10.905 20.3367 12.2617 19.572 13.347C18.832 14.4323 17.6357 15.4067 15.983 16.27L22.384 27H14.762L9.73 17.528ZM7.843 12.866H10.137C12.505 12.866 13.689 11.6697 13.689 9.277C13.689 8.167 13.356 7.353 12.69 6.835C12.0487 6.317 11.0743 6.058 9.767 6.058H7.843V12.866ZM36.0208 1.914V27H29.6198V8.241L24.3658 11.46L21.5168 7.131L30.1748 1.914H36.0208ZM57.2091 25.298C58.9111 25.298 60.3664 25.483 61.5751 25.853C62.7838 26.223 63.9308 26.815 65.0161 27.629L60.9461 32.92C59.5894 31.2673 58.1464 29.96 56.6171 28.998C55.0878 28.036 53.2378 27.555 51.0671 27.555C48.7238 27.555 46.7011 27.037 44.9991 26.001C43.3218 24.9403 42.0268 23.3987 41.1141 21.376C40.2014 19.3533 39.7451 16.936 39.7451 14.124C39.7451 11.3367 40.2014 8.93167 41.1141 6.909C42.0514 4.88633 43.3958 3.33233 45.1471 2.247C46.9231 1.16166 49.0444 0.618998 51.5111 0.618998C55.2358 0.618998 58.1341 1.803 60.2061 4.171C62.2781 6.539 63.3141 9.85667 63.3141 14.124C63.3141 16.9607 62.7344 19.2793 61.5751 21.08C60.4404 22.8807 58.9851 24.2867 57.2091 25.298ZM46.8491 14.124C46.8491 17.1827 47.2314 19.3903 47.9961 20.747C48.7608 22.079 49.9324 22.745 51.5111 22.745C53.1391 22.745 54.3231 22.079 55.0631 20.747C55.8031 19.415 56.1731 17.2073 56.1731 14.124C56.1731 11.0653 55.8031 8.87 55.0631 7.538C54.3231 6.206 53.1391 5.54 51.5111 5.54C49.9078 5.54 48.7238 6.206 47.9591 7.538C47.2191 8.87 46.8491 11.0653 46.8491 14.124ZM86.64 18.379C86.64 20.155 86.2453 21.746 85.456 23.152C84.6913 24.558 83.532 25.668 81.978 26.482C80.424 27.2713 78.5247 27.666 76.28 27.666C72.876 27.666 70.2983 26.8397 68.547 25.187C66.7957 23.5097 65.92 21.2403 65.92 18.379V1.285H72.765V18.157C72.765 19.711 73.0363 20.858 73.579 21.598C74.1463 22.3133 75.0467 22.671 76.28 22.671C77.5133 22.671 78.4013 22.301 78.944 21.561C79.4867 20.821 79.758 19.6863 79.758 18.157V1.285H86.64V18.379ZM97.239 1.359C99.0644 1.359 100.631 1.64267 101.938 2.21C103.245 2.75267 104.232 3.505 104.898 4.467C105.564 5.429 105.897 6.51433 105.897 7.723C105.897 9.22767 105.465 10.4857 104.602 11.497C103.763 12.5083 102.542 13.2607 100.939 13.754C102.641 13.9267 104.022 14.531 105.083 15.567C106.168 16.5783 106.711 18.046 106.711 19.97C106.711 21.376 106.329 22.671 105.564 23.855C104.824 25.0143 103.702 25.9393 102.197 26.63C100.717 27.3207 98.9287 27.666 96.832 27.666C93.0087 27.666 90.0364 26.3587 87.915 23.744L91.393 20.377C92.2317 21.191 93.0334 21.783 93.798 22.153C94.5874 22.523 95.4507 22.708 96.388 22.708C97.4487 22.708 98.312 22.4243 98.978 21.857C99.644 21.2897 99.977 20.488 99.977 19.452C99.977 18.2927 99.6564 17.454 99.015 16.936C98.3737 16.3933 97.4117 16.122 96.129 16.122H93.983L94.723 11.682H96.203C97.2637 11.682 98.0777 11.423 98.645 10.905C99.237 10.387 99.533 9.684 99.533 8.796C99.533 7.95733 99.2494 7.316 98.682 6.872C98.1394 6.40333 97.3994 6.169 96.462 6.169C94.7354 6.169 93.132 6.88433 91.652 8.315L88.396 4.874C90.8134 2.53067 93.761 1.359 97.239 1.359Z" fill="#141414"/>
</svg>
