<svg width="200" height="50" viewBox="0 0 140 38" fill="none" xmlns="http://www.w3.org/2000/svg">
<path fill-rule="evenodd" clip-rule="evenodd" d="M112.285 0.589112L111.5 0.0449219V1.00001V27.784V28.8243L112.312 28.1744L122.057 20.3788L131.304 37.2404L131.446 37.5H131.742H139H139.5V37V19.72V6.18401V5.1437L138.688 5.79358L129.914 12.8122L112.285 0.589112ZM131.554 35.6173L122.85 19.7447L129.957 14.0587L135.695 18.0367L131.554 35.6173ZM122.361 18.8545L129.1 13.4641L113.458 2.61959L122.361 18.8545ZM121.569 19.4887L112.5 2.95164V26.7437L121.569 19.4887ZM135.941 16.9907L130.772 13.4068L138.181 7.47934L135.941 16.9907ZM136.824 17.603L138.5 10.4879V18.7649L136.824 17.603ZM136.578 18.649L138.5 19.9818V36.5H132.373L136.578 18.649ZM7.84299 22.528H9.72999L14.762 32H22.384L15.983 21.27C17.6357 20.4067 18.832 19.4323 19.572 18.347C20.3367 17.2617 20.719 15.905 20.719 14.277C20.719 11.5637 19.8187 9.55333 18.018 8.246C16.242 6.93867 13.541 6.285 9.91499 6.285H0.997986V32H7.84299V22.528ZM10.137 17.866H7.84299V11.058H9.76699C11.0743 11.058 12.0487 11.317 12.69 11.835C13.356 12.353 13.689 13.167 13.689 14.277C13.689 16.6697 12.505 17.866 10.137 17.866ZM36.0208 32V6.914H30.1748L21.5168 12.131L24.3658 16.46L29.6198 13.241V32H36.0208ZM61.5751 30.853C60.3664 30.483 58.9111 30.298 57.2091 30.298C58.9851 29.2867 60.4404 27.8807 61.5751 26.08C62.7344 24.2793 63.3141 21.9607 63.3141 19.124C63.3141 14.8567 62.2781 11.539 60.2061 9.171C58.1341 6.803 55.2358 5.619 51.5111 5.619C49.0444 5.619 46.9231 6.16166 45.1471 7.247C43.3958 8.33233 42.0514 9.88633 41.1141 11.909C40.2014 13.9317 39.7451 16.3367 39.7451 19.124C39.7451 21.936 40.2014 24.3533 41.1141 26.376C42.0268 28.3987 43.3218 29.9403 44.9991 31.001C46.7011 32.037 48.7238 32.555 51.0671 32.555C53.2378 32.555 55.0878 33.036 56.6171 33.998C58.1464 34.96 59.5894 36.2673 60.9461 37.92L65.0161 32.629C63.9308 31.815 62.7838 31.223 61.5751 30.853ZM47.9961 25.747C47.2314 24.3903 46.8491 22.1827 46.8491 19.124C46.8491 16.0653 47.2191 13.87 47.9591 12.538C48.7238 11.206 49.9078 10.54 51.5111 10.54C53.1391 10.54 54.3231 11.206 55.0631 12.538C55.8031 13.87 56.1731 16.0653 56.1731 19.124C56.1731 22.2073 55.8031 24.415 55.0631 25.747C54.3231 27.079 53.1391 27.745 51.5111 27.745C49.9324 27.745 48.7608 27.079 47.9961 25.747ZM85.456 28.152C86.2453 26.746 86.64 25.155 86.64 23.379V6.285H79.758V23.157C79.758 24.6863 79.4867 25.821 78.944 26.561C78.4013 27.301 77.5133 27.671 76.28 27.671C75.0467 27.671 74.1463 27.3133 73.579 26.598C73.0363 25.858 72.765 24.711 72.765 23.157V6.285H65.92V23.379C65.92 26.2403 66.7957 28.5097 68.547 30.187C70.2983 31.8397 72.876 32.666 76.28 32.666C78.5247 32.666 80.424 32.2713 81.978 31.482C83.532 30.668 84.6913 29.558 85.456 28.152ZM101.938 7.21C100.631 6.64267 99.0644 6.359 97.239 6.359C93.761 6.359 90.8134 7.53067 88.396 9.874L91.652 13.315C93.132 11.8843 94.7354 11.169 96.462 11.169C97.3994 11.169 98.1394 11.4033 98.682 11.872C99.2494 12.316 99.533 12.9573 99.533 13.796C99.533 14.684 99.237 15.387 98.645 15.905C98.0777 16.423 97.2637 16.682 96.203 16.682H94.723L93.983 21.122H96.129C97.4117 21.122 98.3737 21.3933 99.015 21.936C99.6564 22.454 99.977 23.2927 99.977 24.452C99.977 25.488 99.644 26.2897 98.978 26.857C98.312 27.4243 97.4487 27.708 96.388 27.708C95.4507 27.708 94.5874 27.523 93.798 27.153C93.0334 26.783 92.2317 26.191 91.393 25.377L87.915 28.744C90.0364 31.3587 93.0087 32.666 96.832 32.666C98.9287 32.666 100.717 32.3207 102.197 31.63C103.702 30.9393 104.824 30.0143 105.564 28.855C106.329 27.671 106.711 26.376 106.711 24.97C106.711 23.046 106.168 21.5783 105.083 20.567C104.022 19.531 102.641 18.9267 100.939 18.754C102.542 18.2607 103.763 17.5083 104.602 16.497C105.465 15.4857 105.897 14.2277 105.897 12.723C105.897 11.5143 105.564 10.429 104.898 9.467C104.232 8.505 103.245 7.75267 101.938 7.21Z" fill="black"/>
</svg>
